<?xml version="1.0" encoding="iso-8859-1"?>
<!-- Uploaded to: SVG Repo, www.svgrepo.com, Generator: SVG Repo Mixer Tools -->
<!DOCTYPE svg PUBLIC "-//W3C//DTD SVG 1.1//EN" "http://www.w3.org/Graphics/SVG/1.1/DTD/svg11.dtd">
<svg fill="#000000" version="1.1" id="Capa_1" xmlns="http://www.w3.org/2000/svg" xmlns:xlink="http://www.w3.org/1999/xlink" 
	 width="1em" height="1em" viewBox="0 0 69.468 69.468"
	 xml:space="preserve">
<g>
	<path d="M39.257,43.845c-0.688-0.475-1.996-0.977-3.918-1.515v-6.054c1.143,0.041,1.979,0.483,2.498,1.318
		c0.28,0.451,0.449,0.994,0.509,1.624h2.181c-0.046-1.407-0.502-2.532-1.392-3.394c-0.881-0.854-2.148-1.337-3.795-1.455v-1.627
		h-1.184v1.654c-1.665,0.014-2.959,0.53-3.885,1.547c-0.925,1.013-1.387,2.14-1.387,3.403c0,1.409,0.43,2.514,1.287,3.307
		c0.857,0.794,2.188,1.364,3.985,1.702v6.779c-1.402-0.118-2.363-0.647-2.88-1.583c-0.292-0.524-0.472-1.346-0.537-2.486H28.54
		c0,1.428,0.238,2.56,0.707,3.395c0.865,1.551,2.5,2.408,4.912,2.563v2.413h1.185v-2.413c1.503-0.164,2.649-0.506,3.448-1.021
		c1.433-0.927,2.148-2.491,2.148-4.699C40.927,45.781,40.375,44.629,39.257,43.845z M34.154,42.098
		c-0.925-0.183-1.663-0.507-2.211-0.972c-0.547-0.466-0.82-1.104-0.82-1.931c0-0.675,0.232-1.327,0.694-1.952
		c0.463-0.62,1.243-0.953,2.338-0.994V42.098z M38.276,49.643c-0.538,0.968-1.517,1.485-2.938,1.552v-6.542
		c1.036,0.282,1.773,0.579,2.21,0.898c0.764,0.538,1.143,1.327,1.143,2.37C38.691,48.566,38.552,49.146,38.276,49.643z M0,22.769
		v0.938l0,0v42.209h69.468V23.715h-8.016V13.129l-9.266,1.424V3.552L0,22.769z M49.859,6.901v8.017l-37.391,5.764L49.859,6.901z
		 M34.734,58.384c-7.895,0-14.293-6.4-14.293-14.298c0-7.887,6.398-14.292,14.293-14.292s14.293,6.405,14.293,14.292
		C49.027,51.983,42.629,58.384,34.734,58.384z M59.116,15.854v7.856H8.146L59.116,15.854z"/>
</g>
</svg>